<svg width="17" height="23" viewBox="0 0 17 23" fill="none" xmlns="http://www.w3.org/2000/svg">
<path d="M8.5 5.3125C9.24592 5.3125 9.96129 5.60882 10.4887 6.13626C11.0162 6.66371 11.3125 7.37908 11.3125 8.125C11.3125 8.49434 11.2398 8.86007 11.0984 9.2013C10.9571 9.54253 10.7499 9.85257 10.4887 10.1137C10.2276 10.3749 9.91753 10.5821 9.5763 10.7234C9.23507 10.8648 8.86934 10.9375 8.5 10.9375C7.75408 10.9375 7.03871 10.6412 6.51126 10.1137C5.98382 9.58629 5.6875 8.87092 5.6875 8.125C5.6875 7.37908 5.98382 6.66371 6.51126 6.13626C7.03871 5.60882 7.75408 5.3125 8.5 5.3125ZM8.5 0.25C10.5886 0.25 12.5916 1.07969 14.0685 2.55653C15.5453 4.03338 16.375 6.03642 16.375 8.125C16.375 14.0312 8.5 22.75 8.5 22.75C8.5 22.75 0.625 14.0312 0.625 8.125C0.625 6.03642 1.45469 4.03338 2.93153 2.55653C4.40838 1.07969 6.41142 0.25 8.5 0.25ZM8.5 2.5C7.00816 2.5 5.57742 3.09263 4.52252 4.14752C3.46763 5.20242 2.875 6.63316 2.875 8.125C2.875 9.25 2.875 11.5 8.5 19.0487C14.125 11.5 14.125 9.25 14.125 8.125C14.125 6.63316 13.5324 5.20242 12.4775 4.14752C11.4226 3.09263 9.99184 2.5 8.5 2.5Z" fill="black"/>
</svg>
