<svg width="80" height="541" viewBox="0 0 80 541" fill="none" xmlns="http://www.w3.org/2000/svg">
<path d="M12.267 94V0.909088H42.4943C48.1307 0.909088 52.8883 1.90909 56.767 3.90909C60.6458 5.90909 63.5852 8.71212 65.5852 12.3182C67.6155 15.9242 68.6307 20.1212 68.6307 24.9091C68.6307 28.6667 68.0246 32 66.8125 34.9091C65.6004 37.8182 63.9034 40.2273 61.7216 42.1364C59.5701 44.0152 57.0398 45.3182 54.1307 46.0455V46.5909C57.3428 46.8333 60.3277 47.9545 63.0852 49.9545C65.8428 51.9242 68.0549 54.6061 69.7216 58C71.4186 61.3939 72.267 65.3485 72.267 69.8636C72.267 74.6212 71.2367 78.8182 69.1761 82.4545C67.1458 86.0606 64.1004 88.8939 60.0398 90.9545C55.9792 92.9848 50.9489 94 44.9489 94H12.267ZM17.9489 88.7273H44.9489C51.9489 88.7273 57.3277 86.9697 61.0852 83.4545C64.8731 79.9394 66.767 75.4091 66.767 69.8636C66.767 65.9545 65.8428 62.4545 63.9943 59.3636C62.1761 56.2727 59.6458 53.8333 56.4034 52.0455C53.161 50.2273 49.4034 49.3182 45.1307 49.3182H17.9489V88.7273ZM17.9489 44.1364H44.4489C48.4186 44.1364 51.7822 43.2727 54.5398 41.5455C57.3277 39.8182 59.4489 37.5 60.9034 34.5909C62.3883 31.6818 63.1307 28.4545 63.1307 24.9091C63.1307 19.1515 61.3428 14.5909 57.767 11.2273C54.1913 7.86363 49.1004 6.18182 42.4943 6.18182H17.9489V44.1364ZM79.375 196.455C79.375 206.061 77.7083 214.455 74.375 221.636C71.0417 228.788 66.4053 234.348 60.4659 238.318C54.5568 242.288 47.7386 244.273 40.0114 244.273C32.2538 244.273 25.4053 242.288 19.4659 238.318C13.5568 234.318 8.93561 228.742 5.60227 221.591C2.26894 214.409 0.602273 206.03 0.602273 196.455C0.602273 186.848 2.26894 178.47 5.60227 171.318C8.96591 164.167 13.6023 158.606 19.5114 154.636C25.4205 150.636 32.2538 148.636 40.0114 148.636C47.7386 148.636 54.5568 150.621 60.4659 154.591C66.4053 158.561 71.0417 164.136 74.375 171.318C77.7083 178.47 79.375 186.848 79.375 196.455ZM73.8296 196.455C73.8296 187.818 72.375 180.333 69.4659 174C66.5871 167.667 62.6023 162.773 57.5114 159.318C52.4205 155.833 46.5871 154.091 40.0114 154.091C33.4356 154.091 27.6023 155.818 22.5114 159.273C17.4205 162.697 13.4205 167.591 10.5114 173.955C7.63258 180.288 6.19318 187.788 6.19318 196.455C6.19318 205.03 7.61742 212.5 10.4659 218.864C13.3447 225.197 17.3295 230.106 22.4205 233.591C27.5114 237.076 33.375 238.818 40.0114 238.818C46.5871 238.818 52.4205 237.091 57.5114 233.636C62.6023 230.152 66.5871 225.242 69.4659 218.909C72.375 212.576 73.8296 205.091 73.8296 196.455Z" fill="black"/>
<path d="M79.375 345.455C79.375 355.061 77.7083 363.455 74.375 370.636C71.0417 377.788 66.4053 383.348 60.4659 387.318C54.5568 391.288 47.7386 393.273 40.0114 393.273C32.2538 393.273 25.4053 391.288 19.4659 387.318C13.5568 383.318 8.93561 377.742 5.60227 370.591C2.26894 363.409 0.602273 355.03 0.602273 345.455C0.602273 335.848 2.26894 327.47 5.60227 320.318C8.96591 313.167 13.6023 307.606 19.5114 303.636C25.4205 299.636 32.2538 297.636 40.0114 297.636C47.7386 297.636 54.5568 299.621 60.4659 303.591C66.4053 307.561 71.0417 313.136 74.375 320.318C77.7083 327.47 79.375 335.848 79.375 345.455ZM73.8296 345.455C73.8296 336.818 72.375 329.333 69.4659 323C66.5871 316.667 62.6023 311.773 57.5114 308.318C52.4205 304.833 46.5871 303.091 40.0114 303.091C33.4356 303.091 27.6023 304.818 22.5114 308.273C17.4205 311.697 13.4205 316.591 10.5114 322.955C7.63258 329.288 6.19318 336.788 6.19318 345.455C6.19318 354.03 7.61742 361.5 10.4659 367.864C13.3447 374.197 17.3295 379.106 22.4205 382.591C27.5114 386.076 33.375 387.818 40.0114 387.818C46.5871 387.818 52.4205 386.091 57.5114 382.636C62.6023 379.152 66.5871 374.242 69.4659 367.909C72.375 361.576 73.8296 354.091 73.8296 345.455ZM13.267 541V447.909H18.9489V501.955H19.5852L68.6761 447.909H76.2216L35.8125 491.955L75.858 541H68.767L32.1761 496.045L18.9489 510.682V541H13.267Z" fill="#3069FE"/>
</svg>
