<svg width="34" height="28" viewBox="0 0 34 28" fill="none" xmlns="http://www.w3.org/2000/svg">
<path d="M14.3529 2.84943L14.353 2.84952L16.763 5.24174L17.1152 5.59138L17.4675 5.24174L19.8774 2.84952L19.8775 2.84958L19.8837 2.8432C20.5962 2.11034 21.4486 1.52561 22.3913 1.12329C23.334 0.720965 24.3481 0.509149 25.3743 0.50029C26.4005 0.491431 27.4181 0.685707 28.3678 1.0717C29.3174 1.4577 30.1799 2.02763 30.9051 2.74809C31.6303 3.46854 32.2036 4.32508 32.5918 5.26764C32.98 6.21019 33.1752 7.21999 33.1663 8.23815C33.1574 9.2563 32.9445 10.2626 32.5399 11.1983C32.1353 12.134 31.5471 12.9806 30.8094 13.6884L30.8093 13.6884L30.8032 13.6945L17.1152 27.2951L3.42729 13.6945C3.42728 13.6945 3.42727 13.6945 3.42726 13.6945C1.97939 12.2556 1.16663 10.3051 1.16663 8.27193C1.16663 6.23883 1.97936 4.28829 3.42719 2.84943C4.87562 1.41088 6.84055 0.602158 8.89004 0.602158C10.9395 0.602158 12.9045 1.41088 14.3529 2.84943Z" stroke="#2D2D2D"/>
</svg>
