<svg width="36" height="38" viewBox="0 0 36 38" fill="none" xmlns="http://www.w3.org/2000/svg">
<path d="M16.9999 0.25C17.5309 0.250589 18.0417 0.453915 18.4278 0.818434C18.8139 1.18295 19.0462 1.68115 19.0774 2.21124C19.1085 2.74133 18.936 3.26329 18.5952 3.67048C18.2544 4.07768 17.771 4.33937 17.2437 4.40208L16.9999 4.41667H6.58325C6.07297 4.41673 5.58047 4.60407 5.19914 4.94316C4.81782 5.28224 4.5742 5.74948 4.5145 6.25625L4.49992 6.5V31.5C4.49999 32.0103 4.68733 32.5028 5.02641 32.8841C5.36549 33.2654 5.83273 33.509 6.3395 33.5687L6.58325 33.5833H15.9583C16.4893 33.5839 17 33.7872 17.3861 34.1518C17.7722 34.5163 18.0046 35.0145 18.0357 35.5446C18.0668 36.0747 17.8943 36.5966 17.5535 37.0038C17.2127 37.411 16.7293 37.6727 16.202 37.7354L15.9583 37.75H6.58325C4.98906 37.7501 3.4551 37.141 2.29521 36.0473C1.13532 34.9537 0.437195 33.4581 0.343669 31.8667L0.333252 31.5V6.5C0.333163 4.90581 0.942263 3.37184 2.03593 2.21196C3.12959 1.05207 4.62514 0.353943 6.21659 0.260417L6.58325 0.25H16.9999ZM28.8895 11.6333L34.7812 17.5271C35.1717 17.9178 35.3911 18.4476 35.3911 19C35.3911 19.5524 35.1717 20.0822 34.7812 20.4729L28.8895 26.3667C28.4986 26.7573 27.9685 26.9767 27.4159 26.9765C26.8632 26.9763 26.3333 26.7565 25.9426 26.3656C25.552 25.9747 25.3326 25.4446 25.3328 24.892C25.333 24.3393 25.5528 23.8094 25.9437 23.4187L28.2791 21.0833H16.9999C16.4474 21.0833 15.9175 20.8638 15.5268 20.4731C15.1361 20.0824 14.9166 19.5525 14.9166 19C14.9166 18.4475 15.1361 17.9176 15.5268 17.5269C15.9175 17.1362 16.4474 16.9167 16.9999 16.9167H28.2791L25.9437 14.5812C25.5528 14.1906 25.333 13.6607 25.3328 13.108C25.3326 12.5554 25.552 12.0253 25.9426 11.6344C26.3333 11.2435 26.8632 11.0237 27.4159 11.0235C27.9685 11.0233 28.4986 11.2427 28.8895 11.6333Z" fill="black"/>
</svg>
