<svg width="16" height="25" viewBox="0 0 16 25" fill="none" xmlns="http://www.w3.org/2000/svg">
<path d="M12.4375 0.125H3.4375C2.69158 0.125 1.97621 0.421316 1.44876 0.948762C0.921316 1.47621 0.625 2.19158 0.625 2.9375V22.0625C0.625 22.8084 0.921316 23.5238 1.44876 24.0512C1.97621 24.5787 2.69158 24.875 3.4375 24.875H12.4375C13.1834 24.875 13.8988 24.5787 14.4262 24.0512C14.9537 23.5238 15.25 22.8084 15.25 22.0625V2.9375C15.25 2.19158 14.9537 1.47621 14.4262 0.948762C13.8988 0.421316 13.1834 0.125 12.4375 0.125ZM7.9375 23.75C7.00375 23.75 6.25 22.9963 6.25 22.0625C6.25 21.1287 7.00375 20.375 7.9375 20.375C8.87125 20.375 9.625 21.1287 9.625 22.0625C9.625 22.9963 8.87125 23.75 7.9375 23.75ZM13 19.25H2.875V3.5H13V19.25Z" fill="black"/>
</svg>
