<svg width="51" height="51" viewBox="0 0 51 51" fill="none" xmlns="http://www.w3.org/2000/svg">
<path fill-rule="evenodd" clip-rule="evenodd" d="M25.5001 47.625C37.7192 47.625 47.6251 37.7192 47.6251 25.5C47.6251 13.2809 37.7192 3.37502 25.5001 3.37502C13.2809 3.37502 3.37508 13.2809 3.37508 25.5C3.37508 37.7192 13.2809 47.625 25.5001 47.625ZM25.5001 50.0834C39.0775 50.0834 50.0834 39.0774 50.0834 25.5C50.0834 11.9226 39.0775 0.916687 25.5001 0.916687C11.9227 0.916687 0.916748 11.9226 0.916748 25.5C0.916748 39.0774 11.9227 50.0834 25.5001 50.0834Z" fill="black"/>
<path d="M10.75 39.7952C10.75 38.5255 11.6989 37.4524 12.9625 37.3123C22.4455 36.2626 28.5975 36.3573 38.0596 37.3357C38.5321 37.3853 38.98 37.5714 39.3484 37.8714C39.7169 38.1713 39.99 38.5721 40.1344 39.0247C40.2789 39.4773 40.2884 39.9622 40.1618 40.4201C40.0352 40.878 39.778 41.2892 39.4215 41.6033C28.2546 51.3371 21.8727 51.2031 11.5367 41.6132C11.0327 41.1461 10.75 40.4811 10.75 39.7952Z" fill="black"/>
<path fill-rule="evenodd" clip-rule="evenodd" d="M37.9332 38.5574C28.546 37.5864 22.4826 37.4954 13.0966 38.5341C12.7877 38.5701 12.5029 38.7188 12.2967 38.9517C12.0906 39.1846 11.9775 39.4854 11.9793 39.7964C11.9793 40.148 12.1256 40.4811 12.3727 40.7122C17.4958 45.4641 21.3775 47.6115 25.172 47.625C28.9799 47.6385 33.0706 45.5084 38.6141 40.6778C38.7903 40.521 38.917 40.3165 38.9791 40.089C39.0411 39.8615 39.0358 39.621 38.9636 39.3965C38.8915 39.172 38.7557 38.9734 38.5728 38.8246C38.3899 38.6759 38.1677 38.5823 37.9332 38.5574ZM12.8275 36.0905C22.41 35.0297 28.6518 35.1256 38.1876 36.1126C38.8985 36.1868 39.5722 36.4667 40.1265 36.9179C40.6807 37.3691 41.0913 37.9722 41.3081 38.6532C41.5249 39.3342 41.5384 40.0636 41.347 40.7522C41.1557 41.4408 40.7676 42.0586 40.2305 42.5301C34.6071 47.432 29.9239 50.1018 25.1646 50.0833C20.3918 50.0661 15.9151 47.3509 10.7022 42.5141C10.329 42.1665 10.0315 41.7456 9.82822 41.2778C9.62498 40.81 9.5204 40.3053 9.521 39.7952C9.51921 38.8788 9.85559 37.9939 10.4657 37.3101C11.0758 36.6263 11.9168 36.1928 12.8275 36.0905Z" fill="black"/>
<path d="M35.3334 20.5833C35.3334 23.1913 34.2974 25.6924 32.4533 27.5366C30.6092 29.3807 28.108 30.4167 25.5001 30.4167C22.8921 30.4167 20.391 29.3807 18.5469 27.5366C16.7028 25.6924 15.6667 23.1913 15.6667 20.5833C15.6667 17.9754 16.7028 15.4742 18.5469 13.6301C20.391 11.786 22.8921 10.75 25.5001 10.75C28.108 10.75 30.6092 11.786 32.4533 13.6301C34.2974 15.4742 35.3334 17.9754 35.3334 20.5833Z" fill="black"/>
<path fill-rule="evenodd" clip-rule="evenodd" d="M25.5001 27.9583C27.4561 27.9583 29.3319 27.1813 30.715 25.7982C32.0981 24.4152 32.8751 22.5393 32.8751 20.5833C32.8751 18.6274 32.0981 16.7515 30.715 15.3684C29.3319 13.9853 27.4561 13.2083 25.5001 13.2083C23.5441 13.2083 21.6682 13.9853 20.2852 15.3684C18.9021 16.7515 18.1251 18.6274 18.1251 20.5833C18.1251 22.5393 18.9021 24.4152 20.2852 25.7982C21.6682 27.1813 23.5441 27.9583 25.5001 27.9583ZM25.5001 30.4167C28.108 30.4167 30.6092 29.3807 32.4533 27.5366C34.2974 25.6924 35.3334 23.1913 35.3334 20.5833C35.3334 17.9754 34.2974 15.4742 32.4533 13.6301C30.6092 11.786 28.108 10.75 25.5001 10.75C22.8921 10.75 20.391 11.786 18.5469 13.6301C16.7028 15.4742 15.6667 17.9754 15.6667 20.5833C15.6667 23.1913 16.7028 25.6924 18.5469 27.5366C20.391 29.3807 22.8921 30.4167 25.5001 30.4167Z" fill="black"/>
</svg>
