<svg width="68" height="541" viewBox="0 0 68 541" fill="none" xmlns="http://www.w3.org/2000/svg">
<path d="M6.57955 94V0.909088H35.2614C41.1402 0.909088 46.2008 2.0606 50.4432 4.36363C54.6856 6.66666 57.9432 9.86363 60.2159 13.9545C62.4886 18.0152 63.625 22.7424 63.625 28.1364C63.625 33.4697 62.4886 38.1667 60.2159 42.2273C57.9432 46.2576 54.6856 49.4091 50.4432 51.6818C46.2311 53.9545 41.1856 55.0909 35.3068 55.0909H9.625V49.7727H35.1705C39.9583 49.7727 44.0492 48.8788 47.4432 47.0909C50.8371 45.303 53.4432 42.803 55.2614 39.5909C57.0795 36.3485 57.9886 32.5303 57.9886 28.1364C57.9886 23.7121 57.0795 19.8636 55.2614 16.5909C53.4432 13.2879 50.822 10.7273 47.3977 8.90909C44.0038 7.09091 39.9129 6.18182 35.125 6.18182H12.2614V94H6.57955ZM44.8068 51.8182L67.7159 94H61.1705L38.3977 51.8182H44.8068ZM8.76705 243V149.909H60.5852V155.182H14.4489V193.773H57.8125V199.045H14.4489V237.727H61.6761V243H8.76705Z" fill="#3069FE"/>
<path d="M56.8864 322.182C56.4015 316.394 54.0379 311.712 49.7955 308.136C45.5833 304.561 40.1288 302.773 33.4318 302.773C28.9167 302.773 24.9015 303.606 21.3864 305.273C17.8712 306.939 15.1136 309.212 13.1136 312.091C11.1136 314.97 10.1136 318.273 10.1136 322C10.1136 324.394 10.5682 326.561 11.4773 328.5C12.4167 330.409 13.7348 332.121 15.4318 333.636C17.1288 335.121 19.1439 336.424 21.4773 337.545C23.8106 338.667 26.3864 339.652 29.2045 340.5L39.3864 343.5C42.8712 344.561 46.0833 345.788 49.0227 347.182C51.9924 348.576 54.5682 350.242 56.75 352.182C58.9621 354.091 60.6742 356.333 61.8864 358.909C63.1288 361.485 63.75 364.455 63.75 367.818C63.75 372.727 62.4773 377.121 59.9318 381C57.4167 384.879 53.8258 387.939 49.1591 390.182C44.5227 392.394 39.053 393.5 32.75 393.5C26.75 393.5 21.5227 392.485 17.0682 390.455C12.6439 388.424 9.14394 385.606 6.56818 382C3.99242 378.364 2.53788 374.182 2.20455 369.455H8.02273C8.32576 373.303 9.55303 376.636 11.7045 379.455C13.8864 382.242 16.7803 384.394 20.3864 385.909C23.9924 387.424 28.1136 388.182 32.75 388.182C37.75 388.182 42.1591 387.333 45.9773 385.636C49.7955 383.909 52.7803 381.515 54.9318 378.455C57.0833 375.394 58.1591 371.833 58.1591 367.773C58.1591 364.5 57.3864 361.697 55.8409 359.364C54.2955 357.03 52.0076 355.015 48.9773 353.318C45.9773 351.621 42.25 350.106 37.7955 348.773L26.9318 345.5C19.6591 343.288 14.0985 340.273 10.25 336.455C6.43182 332.636 4.52273 327.879 4.52273 322.182C4.52273 317.394 5.79546 313.152 8.34091 309.455C10.8864 305.727 14.3409 302.803 18.7045 300.682C23.0985 298.561 28.053 297.5 33.5682 297.5C39.1136 297.5 44.0076 298.576 48.25 300.727C52.4924 302.848 55.8561 305.773 58.3409 309.5C60.8258 313.197 62.2045 317.424 62.4773 322.182H56.8864ZM0.397727 453.182V447.909H65.625V453.182H35.8523V541H30.1705V453.182H0.397727Z" fill="black"/>
</svg>
